:version 1.10
:name ASF
:units
  mass 1
  length 1
  angle deg
:documentation
  ASF file generated by Kaydara
:root
  axis xyz
  order  tx ty tz rx ry rz
  position 0 0 0
  orientation 0 0 0
:bonedata
  begin
    id 1
    name RightUpLegDummy
    direction -0.718183 -0.695806 0.00816078
    length 4.904
    axis 0 0 0 xyz
  end
  begin
    id 2
    name RightUpLeg
    direction 3.53373e-006 -0.995788 0.0916898
    length 17.4976
    axis -3.49089 -0.000906625 0.000286804 xyz
    dof rx ry rz
  end
  begin
    id 3
    name RightLeg
    direction 0.00371092 -0.995096 -0.0988419
    length 16.5821
    axis 3.68512 0.0193738 -0.131023 xyz
    dof rx ry rz
  end
  begin
    id 4
    name RightFoot
    direction 0.00079151 -0.46099 0.887405
    length 3.77069
    axis 4.81691e-005 -0.120479 -0.188788 xyz
    dof rx ry rz
  end
  begin
    id 5
    name RightToes
    direction 0 0 0
    length 0
    axis 0 0 0 xyz
    dof rx ry rz
  end
  begin
    id 6
    name SpineDummy
    direction 8.3039e-015 1 4.57515e-016
    length 4.6813
    axis 0 0 0 xyz
  end
  begin
    id 7
    name Spine
    direction -3.15643e-008 0.999988 0.00495137
    length 10.1015
    axis -0.001389 0.000121418 2.40972e-006 xyz
    dof rx ry rz
  end
  begin
    id 8
    name Spine1
    direction 0 0 0
    length 0
    axis -0.001389 0.000121451 1.30017e-006 xyz
    dof rx ry rz
  end
  begin
    id 9
    name HEadDummy
    direction -1.99912e-008 0.999999 0.00127422
    length 3.43865
    axis -0.001389 0.000121451 1.30017e-006 xyz
  end
  begin
    id 10
    name HEad
    direction 0 0 0
    length 0
    axis 0 0 0 xyz
    dof rx ry rz
  end
  begin
    id 11
    name LeftShoulder1Dummy
    direction 0.998891 -0.0402509 -0.0244456
    length 3.5433
    axis -0.001389 0.000121451 1.30017e-006 xyz
  end
  begin
    id 12
    name LeftShoulder1
    direction 0.99951 -0.000327763 0.0313091
    length 4.05031
    axis -0.001389 0.000121451 1.30017e-006 xyz
    dof rx ry rz
  end
  begin
    id 13
    name LeftArm
    direction 0.998561 -0.00100056 -0.0536182
    length 10.3537
    axis -23.1894 0.134784 0.967509 xyz
    dof rx ry rz
  end
  begin
    id 14
    name LeftForeArm
    direction 0.998903 0.00866432 0.046012
    length 8.70632
    axis -9.91835 -0.06569 -0.177794 xyz
    dof rx ry rz
  end
  begin
    id 15
    name LeftHand
    direction 0 0 0
    length 0
    axis 0 0 0 xyz
    dof rx ry rz
  end
  begin
    id 16
    name RightShoulderDummy
    direction -0.998891 -0.0402509 -0.0244414
    length 3.5433
    axis -0.001389 0.000121451 1.30017e-006 xyz
  end
  begin
    id 17
    name RightShoulder
    direction -0.99951 -0.000327807 0.0313133
    length 4.05031
    axis 0.215806 0.000203643 -0.0068026 xyz
    dof rx ry rz
  end
  begin
    id 18
    name RightArm
    direction -0.998573 -0.000999564 -0.053403
    length 10.3947
    axis -23.2009 -0.134239 -0.964101 xyz
    dof rx ry rz
  end
  begin
    id 19
    name RightForeArm
    direction -0.998898 0.00868028 0.0461306
    length 8.68355
    axis -9.92322 0.0658061 0.178868 xyz
    dof rx ry rz
  end
  begin
    id 20
    name RightHand
    direction 0 0 0
    length 0
    axis 0 0 0 xyz
    dof rx ry rz
  end
  begin
    id 21
    name LeftUpLegDummy
    direction 0.718183 -0.695806 0.00816078
    length 4.904
    axis 0 0 0 xyz
  end
  begin
    id 22
    name LeftUpLeg
    direction -6.81752e-006 -0.995793 0.0916337
    length 17.4976
    axis -3.48766 0.00143442 -0.000524262 xyz
    dof rx ry rz
  end
  begin
    id 23
    name LeftLeg
    direction -0.00601358 -0.995091 -0.0987824
    length 16.5821
    axis 3.68178 -0.00654042 -0.000285133 xyz
    dof rx ry rz
  end
  begin
    id 24
    name LeftFoot
    direction -0.00417578 -0.460984 0.887399
    length 3.77069
    axis 1.87233e-006 4.66016e-005 -8.6538e-006 xyz
    dof rx ry rz
  end
  begin
    id 25
    name LeftToes
    direction 0 0 0
    length 0
    axis 0 0 0 xyz
    dof rx ry rz
  end
:hierarchy
  begin
    root RightUpLegDummy SpineDummy LeftUpLegDummy
    RightUpLegDummy RightUpLeg
    RightUpLeg RightLeg
    RightLeg RightFoot
    RightFoot RightToes
    SpineDummy Spine
    Spine Spine1
    Spine1 HEadDummy LeftShoulder1Dummy RightShoulderDummy
    HEadDummy HEad
    LeftShoulder1Dummy LeftShoulder1
    LeftShoulder1 LeftArm
    LeftArm LeftForeArm
    LeftForeArm LeftHand
    RightShoulderDummy RightShoulder
    RightShoulder RightArm
    RightArm RightForeArm
    RightForeArm RightHand
    LeftUpLegDummy LeftUpLeg
    LeftUpLeg LeftLeg
    LeftLeg LeftFoot
    LeftFoot LeftToes
  end

:SAMPLES-PER-SECOND 30
:FULLY-SPECIFIED
:DEGREES
142
root  -67.0973 40.5976 4.21261 -69.1191 -84.9275 58.7635
RightUpLeg  -13.1886 -12.1852 -13.5355
RightLeg  17.2928 -3.92974 -1.56135
RightFoot  -0.580892 -0.476277 5.00131
RightToes  0.000481921 0.542163 -0.142578
Spine  12.8404 -1.78332 -12.2844
Spine1  2.7664 -4.50402 5.82219
HEad  -9.87834 -3.7076 2.90845
LeftShoulder1  4.24747 -8.31111 -29.8735
LeftArm  -28.8286 -35.1303 -27.5968
LeftForeArm  48.7706 -47.3466 -8.66063
LeftHand  -0.25398 0.0180481 5.50724
RightShoulder  3.55818 6.51412 29.5502
RightArm  -1.62935 -40.9077 22.2725
RightForeArm  -7.38483 14.4689 6.75866
RightHand  -2.37492 8.08797 -20.6835
LeftUpLeg  6.79214 7.34657 1.09196
LeftLeg  14.1455 -2.18942 -3.81323
LeftFoot  -9.72485 0.0957968 -2.59914
LeftToes  1.06245e-005 4.65868e-005 -8.65515e-006
143
root  -68.0522 40.4535 3.75725 -73.9319 -84.1127 63.7259
RightUpLeg  -11.1198 -12.3732 -13.8689
RightLeg  13.6326 -3.40059 -1.0154
RightFoot  2.57772 -0.5328 4.54638
RightToes  0.000481921 0.542163 -0.142578
Spine  11.6724 -1.80398 -11.9493
Spine1  3.58355 -3.97274 3.99188
HEad  -8.08592 -5.21112 4.67602
LeftShoulder1  3.62206 -7.21897 -27.6488
LeftArm  -30.5656 -37.383 -26.867
LeftForeArm  59.1514 -53.2152 -10.3595
LeftHand  -0.25398 0.0180481 5.50724
RightShoulder  3.40976 6.20265 29.1479
RightArm  -8.34833 -43.7431 23.2205
RightForeArm  -5.46078 8.81989 6.27842
RightHand  -2.0724 6.76939 -19.9941
LeftUpLeg  7.78202 8.47696 0.963713
LeftLeg  15.0996 -3.46485 -3.17454
LeftFoot  -11.1968 0.071991 -3.34142
LeftToes  1.06245e-005 4.65868e-005 -8.65515e-006
144
root  -69.0209 40.3978 3.34851 -78.5331 -84.7225 68.4961
RightUpLeg  -9.69992 -12.4268 -12.8601
RightLeg  12.0185 -2.01061 -0.12163
RightFoot  6.75244 -0.406761 2.85817
RightToes  0.000481921 0.542163 -0.142578
Spine  10.7824 -2.01941 -8.49089
Spine1  3.8231 -3.07196 1.07563
HEad  -6.44784 -5.99755 5.376
LeftShoulder1  3.21803 -6.27249 -26.767
LeftArm  -31.5277 -36.1057 -26.6203
LeftForeArm  106.32 -62.8715 -14.149
LeftHand  -0.25398 0.0180481 5.50724
RightShoulder  3.44764 6.20564 29.5327
RightArm  -12.127 -46.5193 24.3978
RightForeArm  -7.64063 5.19134 4.69761
RightHand  -1.83986 5.56735 -19.6917
LeftUpLeg  9.02619 8.19638 1.49904
LeftLeg  15.4723 -2.80411 -1.55935
LeftFoot  -12.7367 0.0217408 -4.33017
LeftToes  1.06245e-005 4.65868e-005 -8.65515e-006
145
root  -69.9141 40.3582 2.99162 -86.5004 -86.6465 76.8148
RightUpLeg  -9.60247 -13.5739 -10.6737
RightLeg  13.1384 -0.0205046 1.08659
RightFoot  8.3047 -0.0738504 0.722617
RightToes  0.000481921 0.542163 -0.142578
Spine  10.2629 -2.18792 -3.34222
Spine1  3.99326 -2.18329 -1.13813
HEad  -5.82191 -6.33391 4.62193
LeftShoulder1  3.28668 -6.06645 -28.1912
LeftArm  -32.1862 -31.5036 -26.0005
LeftForeArm  157.804 -73.967 -27.3388
LeftHand  -0.25398 0.0180481 5.50724
RightShoulder  3.4708 6.14807 29.9921
RightArm  -14.3766 -48.3444 25.6569
RightForeArm  -11.3675 4.57935 4.09856
RightHand  -1.9788 5.79984 -20.6993
LeftUpLeg  8.88411 5.95363 2.76313
LeftLeg  17.8052 -0.231404 0.259385
LeftFoot  -14.2059 -0.0794516 -6.51092
LeftToes  1.06245e-005 4.65868e-005 -8.65515e-006
146
root  -70.6821 40.3018 2.63974 -83.3289 -88.9712 74.2602
RightUpLeg  -10.0978 -15.0414 -8.06148
RightLeg  15.2759 1.1112 2.04116
RightFoot  6.48152 0.147257 -0.651947
RightToes  0.000481921 0.542163 -0.142578
Spine  10.0411 -2.0872 0.892339
Spine1  4.20645 -1.63481 -0.983032
HEad  -6.71631 -6.25458 2.35383
LeftShoulder1  3.99956 -7.04851 -31.787
LeftArm  -32.3133 -24.027 -24.789
LeftForeArm  171.666 -81.6349 -60.7808
LeftHand  -0.25398 0.0180481 5.50724
RightShoulder  3.39168 5.95508 29.8885
RightArm  -16.0086 -48.7812 27.6031
RightForeArm  -14.2196 6.07459 4.29293
RightHand  -2.0799 6.37894 -20.6992
LeftUpLeg  6.30406 2.90515 4.58631
LeftLeg  23.7618 3.14852 1.86772
LeftFoot  -14.0791 -0.133297 -9.36901
LeftToes  1.06245e-005 4.65868e-005 -8.65515e-006
147
root  -71.3382 40.2913 2.25222 129.669 -89.4119 -138.207
RightUpLeg  -9.8537 -14.968 -6.26401
RightLeg  16.213 0.399511 2.54697
RightFoot  4.20742 0.172813 -1.04959
RightToes  0.000481921 0.542163 -0.142578
Spine  10.2011 -1.96415 2.67847
Spine1  4.44821 -1.68139 1.06471
HEad  -8.35603 -5.49227 0.904277
LeftShoulder1  5.07362 -8.53538 -36.0331
LeftArm  -32.0998 -14.9034 -23.6723
LeftForeArm  -162.735 -81.532 -119.757
LeftHand  -0.25398 0.0180481 5.50724
RightShoulder  3.43657 6.00884 30.1549
RightArm  -17.833 -47.3968 29.6263
RightForeArm  -15.2473 7.93684 4.52874
RightHand  -1.94288 6.39889 -19.3581
LeftUpLeg  2.27471 1.49979 6.29706
LeftLeg  31.7285 5.44727 3.9803
LeftFoot  -10.8154 0.112059 -10.9618
LeftToes  1.06245e-005 4.65868e-005 -8.65515e-006
148
root  -71.9077 40.3192 1.86384 85.902 -89.0266 -94.1234
RightUpLeg  -9.22067 -13.607 -5.65963
RightLeg  16.4995 -1.30517 2.97284
RightFoot  3.06233 0.200634 -1.42182
RightToes  0.000481921 0.542163 -0.142578
Spine  10.887 -2.05683 2.8152
Spine1  4.29133 -2.06544 3.21872
HEad  -10.5889 -3.17077 1.0608
LeftShoulder1  6.10574 -9.79053 -39.6876
LeftArm  -30.9243 -5.10847 -23.4551
LeftForeArm  172.434 -77.5419 -137.956
LeftHand  -0.25398 0.0180481 5.50724
RightShoulder  3.6983 6.365 31.5243
RightArm  -19.9291 -44.1268 31.1158
RightForeArm  -16.5206 9.2101 4.58102
RightHand  -1.89349 6.68821 -18.461
LeftUpLeg  -2.14715 1.35427 7.05578
LeftLeg  39.5429 6.71589 6.25783
LeftFoot  -6.01669 0.49822 -10.0918
LeftToes  1.06245e-005 4.65868e-005 -8.65515e-006
149
root  -72.4241 40.3953 1.53802 111.112 -88.9333 -118.896
RightUpLeg  -8.8826 -12.7347 -5.57796
RightLeg  16.601 -1.96176 3.5211
RightFoot  2.37857 0.261224 -2.03508
RightToes  0.000481921 0.542163 -0.142578
Spine  11.8303 -1.96963 2.70393
Spine1  3.42209 -2.13432 4.47961
HEad  -12.5874 -0.550245 1.60551
LeftShoulder1  6.89129 -10.5533 -42.6014
LeftArm  -28.788 5.10003 -24.7842
LeftForeArm  172.397 -76.4059 -141.276
LeftHand  -0.25398 0.0180481 5.50724
RightShoulder  3.79362 6.32082 32.6707
RightArm  -23.0193 -39.3231 33.0749
RightForeArm  -20.1737 10.1616 4.50189
RightHand  -2.06435 7.68601 -18.6027
LeftUpLeg  -6.02762 2.87119 6.90702
LeftLeg  44.6617 6.58448 7.30009
LeftFoot  -3.18286 0.567093 -7.60347
LeftToes  1.06245e-005 4.65868e-005 -8.65515e-006
